<?xml version="1.0" standalone="no"?>
<!DOCTYPE svg PUBLIC "-//W3C//DTD SVG 20010904//EN"
 "http://www.w3.org/TR/2001/REC-SVG-20010904/DTD/svg10.dtd">
<svg version="1.0" xmlns="http://www.w3.org/2000/svg"
 width="400.000000pt" height="400.000000pt" viewBox="0 0 400.000000 400.000000"
 preserveAspectRatio="xMidYMid meet">
<metadata>
Created by potrace 1.14, written by Peter Selinger 2001-2017
</metadata>
<g transform="translate(0.000000,400.000000) scale(0.100000,-0.100000)"
fill="#000000" stroke="none">
<path d="M234 3991 c4 -5 9 -47 11 -93 3 -45 8 -94 10 -107 2 -13 7 -65 10
-117 3 -52 8 -102 9 -111 2 -10 7 -56 11 -103 4 -47 8 -101 10 -120 4 -34 10
-97 20 -222 3 -35 8 -85 11 -113 2 -27 7 -77 9 -110 3 -33 7 -80 9 -105 3 -25
7 -79 11 -120 3 -41 8 -90 10 -108 2 -19 7 -66 10 -105 10 -136 20 -243 31
-342 2 -16 6 -68 9 -115 3 -47 8 -101 10 -120 2 -19 6 -64 9 -100 4 -36 8 -85
11 -110 2 -25 7 -75 9 -111 3 -36 7 -88 10 -115 3 -27 8 -78 11 -114 3 -36 7
-87 10 -115 2 -27 7 -81 10 -120 3 -38 8 -86 10 -105 3 -19 7 -69 10 -110 3
-41 7 -91 9 -110 2 -19 7 -66 10 -105 3 -38 8 -97 11 -130 4 -33 7 -74 9 -90
2 -39 11 -51 38 -58 13 -3 59 -15 103 -27 44 -12 87 -24 95 -26 15 -4 127 -35
260 -73 41 -12 82 -23 90 -25 17 -5 92 -25 200 -55 41 -12 107 -30 145 -40 39
-11 153 -43 255 -71 244 -69 256 -71 288 -64 15 4 81 22 147 41 119 34 149 42
295 82 41 11 134 36 205 56 72 20 137 38 145 40 8 2 56 16 105 30 50 14 99 27
109 30 11 2 92 25 180 49 89 25 173 48 189 52 41 9 42 12 52 128 3 39 8 87 10
106 3 30 7 76 20 240 4 53 15 169 21 225 9 92 14 149 19 221 2 39 7 89 9 110
6 50 17 167 31 349 4 39 8 81 10 95 2 14 7 61 10 105 3 44 8 98 10 120 9 102
17 193 20 225 2 19 6 73 10 120 4 47 9 99 10 115 3 38 15 157 20 210 2 22 7
76 10 120 4 44 8 98 11 120 2 22 6 67 9 100 3 33 7 80 10 105 2 25 7 79 10
120 3 41 7 95 10 120 13 126 21 214 30 325 2 33 7 89 11 125 4 36 7 74 8 85 1
20 -6 20 -1767 23 -1065 1 -1766 -2 -1763 -7z"/>
</g>
</svg>
